<mxfile host="app.diagrams.net" agent="Mozilla/5.0 (Windows NT 10.0; Win64; x64) AppleWebKit/537.36 (KHTML, like Gecko) Chrome/140.0.0.0 Safari/537.36 Edg/140.0.0.0" version="28.2.3">
  <diagram name="Trang-1" id="wpnGJtxAkuc6Lpy21MyC">
    <mxGraphModel dx="1273" dy="570" grid="1" gridSize="10" guides="1" tooltips="1" connect="1" arrows="1" fold="1" page="1" pageScale="1" pageWidth="3300" pageHeight="4681" math="0" shadow="0">
      <root>
        <mxCell id="0" />
        <mxCell id="1" parent="0" />
        <mxCell id="WdHmlPviuonaeBfi8zPt-3" value="" style="edgeStyle=orthogonalEdgeStyle;rounded=0;orthogonalLoop=1;jettySize=auto;html=1;" edge="1" parent="1" source="WdHmlPviuonaeBfi8zPt-1" target="WdHmlPviuonaeBfi8zPt-2">
          <mxGeometry relative="1" as="geometry" />
        </mxCell>
        <mxCell id="WdHmlPviuonaeBfi8zPt-1" value="Start" style="ellipse;whiteSpace=wrap;html=1;" vertex="1" parent="1">
          <mxGeometry x="460" y="160" width="120" height="80" as="geometry" />
        </mxCell>
        <mxCell id="WdHmlPviuonaeBfi8zPt-5" value="" style="edgeStyle=orthogonalEdgeStyle;rounded=0;orthogonalLoop=1;jettySize=auto;html=1;" edge="1" parent="1" source="WdHmlPviuonaeBfi8zPt-2" target="WdHmlPviuonaeBfi8zPt-4">
          <mxGeometry relative="1" as="geometry" />
        </mxCell>
        <mxCell id="WdHmlPviuonaeBfi8zPt-2" value="Input a, b, c" style="shape=parallelogram;perimeter=parallelogramPerimeter;whiteSpace=wrap;html=1;fixedSize=1;" vertex="1" parent="1">
          <mxGeometry x="460" y="280" width="120" height="60" as="geometry" />
        </mxCell>
        <mxCell id="WdHmlPviuonaeBfi8zPt-4" value="A + b &amp;gt; c AND a + c &amp;gt; b AND b + c &amp;gt; a" style="rhombus;whiteSpace=wrap;html=1;" vertex="1" parent="1">
          <mxGeometry x="398.13" y="390" width="243.75" height="130" as="geometry" />
        </mxCell>
        <mxCell id="WdHmlPviuonaeBfi8zPt-8" value="" style="endArrow=classic;html=1;rounded=0;exitX=0;exitY=0.5;exitDx=0;exitDy=0;entryX=0.5;entryY=0;entryDx=0;entryDy=0;" edge="1" parent="1" source="WdHmlPviuonaeBfi8zPt-4" target="WdHmlPviuonaeBfi8zPt-10">
          <mxGeometry width="50" height="50" relative="1" as="geometry">
            <mxPoint x="260" y="510" as="sourcePoint" />
            <mxPoint x="190" y="570" as="targetPoint" />
            <Array as="points">
              <mxPoint x="270" y="455" />
            </Array>
          </mxGeometry>
        </mxCell>
        <mxCell id="WdHmlPviuonaeBfi8zPt-9" value="False" style="text;html=1;align=center;verticalAlign=middle;whiteSpace=wrap;rounded=0;" vertex="1" parent="1">
          <mxGeometry x="300" y="430" width="60" height="30" as="geometry" />
        </mxCell>
        <mxCell id="WdHmlPviuonaeBfi8zPt-10" value="Không phải tam giác" style="shape=parallelogram;perimeter=parallelogramPerimeter;whiteSpace=wrap;html=1;fixedSize=1;" vertex="1" parent="1">
          <mxGeometry x="180" y="580" width="180" height="60" as="geometry" />
        </mxCell>
        <mxCell id="WdHmlPviuonaeBfi8zPt-11" value="" style="endArrow=classic;html=1;rounded=0;exitX=1;exitY=0.5;exitDx=0;exitDy=0;entryX=0.5;entryY=0;entryDx=0;entryDy=0;" edge="1" parent="1" source="WdHmlPviuonaeBfi8zPt-4" target="WdHmlPviuonaeBfi8zPt-13">
          <mxGeometry width="50" height="50" relative="1" as="geometry">
            <mxPoint x="800" y="500" as="sourcePoint" />
            <mxPoint x="870" y="570" as="targetPoint" />
            <Array as="points">
              <mxPoint x="760" y="460" />
              <mxPoint x="760" y="510" />
            </Array>
          </mxGeometry>
        </mxCell>
        <mxCell id="WdHmlPviuonaeBfi8zPt-12" value="True" style="text;html=1;align=center;verticalAlign=middle;whiteSpace=wrap;rounded=0;" vertex="1" parent="1">
          <mxGeometry x="641.88" y="420" width="60" height="30" as="geometry" />
        </mxCell>
        <mxCell id="WdHmlPviuonaeBfi8zPt-13" value="a == b &amp;amp;&amp;amp; b == c" style="rhombus;whiteSpace=wrap;html=1;" vertex="1" parent="1">
          <mxGeometry x="670" y="580" width="180" height="80" as="geometry" />
        </mxCell>
        <mxCell id="WdHmlPviuonaeBfi8zPt-14" value="" style="endArrow=classic;html=1;rounded=0;exitX=1;exitY=0.5;exitDx=0;exitDy=0;entryX=0.5;entryY=0;entryDx=0;entryDy=0;" edge="1" parent="1" source="WdHmlPviuonaeBfi8zPt-13" target="WdHmlPviuonaeBfi8zPt-16">
          <mxGeometry width="50" height="50" relative="1" as="geometry">
            <mxPoint x="880" y="640" as="sourcePoint" />
            <mxPoint x="970" y="720" as="targetPoint" />
            <Array as="points">
              <mxPoint x="970" y="620" />
            </Array>
          </mxGeometry>
        </mxCell>
        <mxCell id="WdHmlPviuonaeBfi8zPt-15" value="True" style="text;html=1;align=center;verticalAlign=middle;whiteSpace=wrap;rounded=0;" vertex="1" parent="1">
          <mxGeometry x="860" y="580" width="60" height="30" as="geometry" />
        </mxCell>
        <mxCell id="WdHmlPviuonaeBfi8zPt-16" value="&amp;nbsp;tam giác đều" style="shape=parallelogram;perimeter=parallelogramPerimeter;whiteSpace=wrap;html=1;fixedSize=1;" vertex="1" parent="1">
          <mxGeometry x="880" y="700" width="180" height="60" as="geometry" />
        </mxCell>
        <mxCell id="WdHmlPviuonaeBfi8zPt-17" value="" style="endArrow=classic;html=1;rounded=0;exitX=0;exitY=0.5;exitDx=0;exitDy=0;entryX=0.5;entryY=0;entryDx=0;entryDy=0;" edge="1" parent="1" source="WdHmlPviuonaeBfi8zPt-13" target="WdHmlPviuonaeBfi8zPt-20">
          <mxGeometry width="50" height="50" relative="1" as="geometry">
            <mxPoint x="490" y="620" as="sourcePoint" />
            <mxPoint x="530" y="690" as="targetPoint" />
            <Array as="points">
              <mxPoint x="530" y="620" />
            </Array>
          </mxGeometry>
        </mxCell>
        <mxCell id="WdHmlPviuonaeBfi8zPt-18" value="False" style="text;html=1;align=center;verticalAlign=middle;whiteSpace=wrap;rounded=0;" vertex="1" parent="1">
          <mxGeometry x="581.88" y="590" width="60" height="30" as="geometry" />
        </mxCell>
        <mxCell id="WdHmlPviuonaeBfi8zPt-20" value="(a == b) OR (a == c) OR (b == c)" style="rhombus;whiteSpace=wrap;html=1;" vertex="1" parent="1">
          <mxGeometry x="400" y="700" width="260" height="100" as="geometry" />
        </mxCell>
        <mxCell id="WdHmlPviuonaeBfi8zPt-21" value="" style="endArrow=classic;html=1;rounded=0;exitX=1;exitY=0.5;exitDx=0;exitDy=0;entryX=0.5;entryY=0;entryDx=0;entryDy=0;" edge="1" parent="1" source="WdHmlPviuonaeBfi8zPt-20" target="WdHmlPviuonaeBfi8zPt-23">
          <mxGeometry width="50" height="50" relative="1" as="geometry">
            <mxPoint x="760" y="760" as="sourcePoint" />
            <mxPoint x="770" y="850" as="targetPoint" />
            <Array as="points">
              <mxPoint x="770" y="750" />
            </Array>
          </mxGeometry>
        </mxCell>
        <mxCell id="WdHmlPviuonaeBfi8zPt-22" value="True" style="text;html=1;align=center;verticalAlign=middle;whiteSpace=wrap;rounded=0;" vertex="1" parent="1">
          <mxGeometry x="670" y="715" width="60" height="30" as="geometry" />
        </mxCell>
        <mxCell id="WdHmlPviuonaeBfi8zPt-23" value="&amp;nbsp;tam giác cân" style="shape=parallelogram;perimeter=parallelogramPerimeter;whiteSpace=wrap;html=1;fixedSize=1;" vertex="1" parent="1">
          <mxGeometry x="680" y="840" width="180" height="60" as="geometry" />
        </mxCell>
        <mxCell id="WdHmlPviuonaeBfi8zPt-24" value="" style="endArrow=classic;html=1;rounded=0;exitX=0;exitY=0.5;exitDx=0;exitDy=0;entryX=0.5;entryY=0;entryDx=0;entryDy=0;" edge="1" parent="1" source="WdHmlPviuonaeBfi8zPt-20" target="WdHmlPviuonaeBfi8zPt-26">
          <mxGeometry width="50" height="50" relative="1" as="geometry">
            <mxPoint x="260" y="760" as="sourcePoint" />
            <mxPoint x="270" y="840" as="targetPoint" />
            <Array as="points">
              <mxPoint x="270" y="750" />
            </Array>
          </mxGeometry>
        </mxCell>
        <mxCell id="WdHmlPviuonaeBfi8zPt-25" value="False" style="text;html=1;align=center;verticalAlign=middle;whiteSpace=wrap;rounded=0;" vertex="1" parent="1">
          <mxGeometry x="310" y="715" width="60" height="30" as="geometry" />
        </mxCell>
        <mxCell id="WdHmlPviuonaeBfi8zPt-26" value="&amp;nbsp;tam giác thường" style="shape=parallelogram;perimeter=parallelogramPerimeter;whiteSpace=wrap;html=1;fixedSize=1;" vertex="1" parent="1">
          <mxGeometry x="180" y="850" width="180" height="60" as="geometry" />
        </mxCell>
        <mxCell id="WdHmlPviuonaeBfi8zPt-27" value="End" style="ellipse;whiteSpace=wrap;html=1;" vertex="1" parent="1">
          <mxGeometry x="440" y="990" width="120" height="80" as="geometry" />
        </mxCell>
        <mxCell id="WdHmlPviuonaeBfi8zPt-28" style="edgeStyle=orthogonalEdgeStyle;rounded=0;orthogonalLoop=1;jettySize=auto;html=1;entryX=0;entryY=0.625;entryDx=0;entryDy=0;entryPerimeter=0;" edge="1" parent="1" source="WdHmlPviuonaeBfi8zPt-26" target="WdHmlPviuonaeBfi8zPt-27">
          <mxGeometry relative="1" as="geometry" />
        </mxCell>
        <mxCell id="WdHmlPviuonaeBfi8zPt-29" style="edgeStyle=orthogonalEdgeStyle;rounded=0;orthogonalLoop=1;jettySize=auto;html=1;entryX=1;entryY=0.625;entryDx=0;entryDy=0;entryPerimeter=0;" edge="1" parent="1" source="WdHmlPviuonaeBfi8zPt-23" target="WdHmlPviuonaeBfi8zPt-27">
          <mxGeometry relative="1" as="geometry" />
        </mxCell>
        <mxCell id="WdHmlPviuonaeBfi8zPt-31" value="" style="endArrow=classic;html=1;rounded=0;exitX=0;exitY=0.5;exitDx=0;exitDy=0;" edge="1" parent="1" source="WdHmlPviuonaeBfi8zPt-10" target="WdHmlPviuonaeBfi8zPt-27">
          <mxGeometry width="50" height="50" relative="1" as="geometry">
            <mxPoint x="140" y="620" as="sourcePoint" />
            <mxPoint x="130" y="820" as="targetPoint" />
            <Array as="points">
              <mxPoint x="70" y="610" />
              <mxPoint x="70" y="930" />
            </Array>
          </mxGeometry>
        </mxCell>
        <mxCell id="WdHmlPviuonaeBfi8zPt-32" style="edgeStyle=orthogonalEdgeStyle;rounded=0;orthogonalLoop=1;jettySize=auto;html=1;entryX=1.025;entryY=0.39;entryDx=0;entryDy=0;entryPerimeter=0;" edge="1" parent="1" source="WdHmlPviuonaeBfi8zPt-16" target="WdHmlPviuonaeBfi8zPt-27">
          <mxGeometry relative="1" as="geometry">
            <Array as="points">
              <mxPoint x="970" y="1021" />
            </Array>
          </mxGeometry>
        </mxCell>
      </root>
    </mxGraphModel>
  </diagram>
</mxfile>
